<?xml version="1.0" encoding="utf-8"?>
<!-- Generator: Adobe Illustrator 23.0.1, SVG Export Plug-In . SVG Version: 6.00 Build 0)  -->
<svg version="1.1" id="_x3C_Layer_x3E_" xmlns="http://www.w3.org/2000/svg" xmlns:xlink="http://www.w3.org/1999/xlink" x="0px"
	 y="0px" viewBox="0 0 3170 1585" style="enable-background:new 0 0 3170 1585;" xml:space="preserve">
<style type="text/css">
	.st0{fill:#FFB5D5;}
	.st1{fill:#3B1882;}
	.st2{display:none;}
	.st3{display:inline;fill:#4B00EB;}
	.st4{clip-path:url(#SVGID_2_);}
	.st5{fill:#9664FF;}
	.st6{fill:#4B00EB;}
	.st7{opacity:0.75;fill:#4B00EB;}
	.st8{opacity:0.9;fill:#FFCD55;}
	.st9{fill:#FFCD55;}
	.st10{opacity:0.5;fill:#EBB32E;}
	.st11{opacity:0.5;fill:#4B00EB;}
	.st12{opacity:0.75;fill:#FFCD55;}
</style>
<rect y="0" class="st0" width="3170" height="1585"/>
<path class="st1" d="M1981.2,1585H0V0h584.1c-2.7,95.1,48.2,205.4,179.4,282.6c221.2,130.2,214,285.7,110.6,397.8
	c-103.5,112.1-139.2,336.3,96.3,459.2c235.5,122.9,381.8-18.1,685,57.9C1893.5,1257.1,1984.3,1401.5,1981.2,1585z"/>
<path class="st1" d="M2460.4,0c68.7,150.5,43.5,246.1-45.8,364c-89.3,118-16,323.4,206,301c222.1-22.4,345.7-93.6,359.4,111.9
	c13.7,205.4,169.4,176.9,190,166.8V0H2460.4z"/>
<g class="st2">
	<path class="st3" d="M1290.4,866.7c0-1.4-0.7-2.7-2.1-3.8c-1.4-1.1-3.1-2-5.3-2.7c-2.2-0.7-4.6-1.5-7.2-2.3c-2.7-0.8-5.3-1.8-7.9-3
		c-2.6-1.2-5-2.7-7.2-4.4c-2.2-1.7-3.9-4-5.3-6.9c-1.4-2.9-2.1-6.2-2.1-10c0-6.5,2.8-12.3,8.5-17.2c5.7-4.9,12.9-7.4,21.8-7.4
		c3.6,0,7.1,0.4,10.3,1.2c3.2,0.8,5.9,1.8,7.9,2.9c2.1,1.1,3.9,2.2,5.4,3.3c1.6,1.1,2.6,2.1,3.2,2.9l1.1,1.1l-12.6,13.2
		c-0.4-0.4-0.9-1-1.6-1.7c-0.7-0.7-2.2-1.6-4.5-2.8c-2.3-1.2-4.6-1.8-6.9-1.8c-2.5,0-4.5,0.7-6.1,2.1c-1.6,1.4-2.5,3-2.5,4.8
		c0,1.4,0.7,2.7,2.1,3.8c1.4,1.1,3.1,2,5.3,2.7c2.2,0.7,4.6,1.5,7.2,2.3c2.6,0.8,5.3,1.8,7.9,3c2.7,1.2,5.1,2.7,7.2,4.4
		c2.2,1.7,3.9,4,5.3,6.9c1.4,2.9,2.1,6.2,2.1,10c0,7.4-2.9,13.6-8.7,18.7c-5.8,5.1-13.6,7.6-23.2,7.6c-3.9,0-7.7-0.5-11.4-1.4
		c-3.7-0.9-6.7-2.1-9-3.4c-2.4-1.3-4.4-2.7-6.3-4c-1.8-1.3-3.2-2.5-4-3.5l-1.2-1.4l12.5-13.1c0.1,0.2,0.4,0.5,0.8,0.9
		c0.4,0.4,1.2,1.1,2.3,2.1c1.1,1,2.3,1.9,3.6,2.6c1.3,0.8,2.8,1.4,4.7,2c1.9,0.6,3.8,0.9,5.7,0.9c3,0,5.5-0.8,7.4-2.5
		C1289.4,871,1290.4,869,1290.4,866.7z"/>
	<path class="st3" d="M1399.3,811.3v79.9h-21.7v-30.8h-29.1v30.8h-21.7v-79.9h21.7V841h29.1v-29.7H1399.3z"/>
	<path class="st3" d="M1489,821.4c8.6,8.3,13,18.2,13,29.8c0,11.6-4.3,21.5-13,29.8c-8.6,8.3-19.1,12.5-31.5,12.5
		c-12.4,0-22.9-4.2-31.5-12.5c-8.6-8.3-13-18.2-13-29.8c0-11.6,4.3-21.5,13-29.8c8.6-8.3,19.1-12.5,31.5-12.5
		C1469.9,809,1480.4,813.1,1489,821.4z M1441.7,834.9c-4.3,4.3-6.4,9.8-6.4,16.3c0,6.5,2.1,12,6.4,16.3c4.3,4.3,9.6,6.5,15.9,6.5
		c6.3,0,11.6-2.2,15.9-6.5c4.3-4.3,6.4-9.8,6.4-16.3c0-6.5-2.1-12-6.4-16.3c-4.3-4.3-9.5-6.5-15.9-6.5
		C1451.2,828.4,1445.9,830.6,1441.7,834.9z"/>
	<path class="st3" d="M1515.7,811.3h35.9c8.8,0,15.9,2.6,21.4,7.9c5.5,5.3,8.2,12,8.2,20c0,8.1-2.8,14.7-8.3,20
		c-5.5,5.3-12.6,7.9-21.4,7.9h-14.3v24h-21.7V811.3z M1550.5,830.7h-13.1v17.1h13.1c2.5,0,4.7-0.9,6.5-2.6c1.8-1.7,2.7-3.7,2.7-6
		c0-2.3-0.9-4.3-2.7-6C1555.2,831.6,1553,830.7,1550.5,830.7z"/>
	<path class="st3" d="M1672,811.3h21.7v79.9H1675l-34.3-44.5v44.5H1619v-79.9h18.8l34.2,44.5V811.3z"/>
	<path class="st3" d="M1783.4,821.4c8.6,8.3,13,18.2,13,29.8c0,11.6-4.3,21.5-13,29.8c-8.6,8.3-19.1,12.5-31.5,12.5
		c-12.4,0-22.9-4.2-31.5-12.5c-8.6-8.3-13-18.2-13-29.8c0-11.6,4.3-21.5,13-29.8c8.6-8.3,19.2-12.5,31.5-12.5
		C1764.3,809,1774.8,813.1,1783.4,821.4z M1736,834.9c-4.3,4.3-6.4,9.8-6.4,16.3c0,6.5,2.1,12,6.4,16.3c4.3,4.3,9.6,6.5,15.9,6.5
		s11.6-2.2,15.9-6.5c4.3-4.3,6.4-9.8,6.4-16.3c0-6.5-2.1-12-6.4-16.3c-4.3-4.3-9.5-6.5-15.9-6.5S1740.3,830.6,1736,834.9z"/>
	<path class="st3" d="M1860.3,845l-14.8,46.2h-19.4l-26.3-79.9h23.4l13.7,48.5l14.3-48.5h18.3l14.3,48.5l13.7-48.5h23.3l-26.2,79.9
		h-19.4L1860.3,845z"/>
</g>
<g>
	<defs>
		<rect id="SVGID_1_" y="0" width="3170" height="1585"/>
	</defs>
	<clipPath id="SVGID_2_">
		<use xlink:href="#SVGID_1_"  style="overflow:visible;"/>
	</clipPath>
	<g class="st4">
		<g>
			<g>
				<g>
					<path class="st5" d="M356.8,1705.7L356.8,1705.7c-2.5-2.5-2.5-6.5,0-8.9l76.1-76c2.5-2.5,6.5-2.5,8.9,0l0,0
						c2.5,2.5,2.5,6.5,0,8.9l-76.1,76C363.3,1708.1,359.3,1708.1,356.8,1705.7z"/>
				</g>
				<g>
					<path class="st5" d="M282.1,1735.6L282.1,1735.6c-2.5-2.5-2.5-6.5,0-8.9l194.4-194.1v-0.1l2-1.9l2.5,2.6c1.2,1.2,2.8,1.9,4.5,2
						l3.6,0v2.6L291,1735.6C288.5,1738.1,284.5,1738.1,282.1,1735.6z"/>
				</g>
				<g>
					<path class="st5" d="M231.3,1741.6L231.3,1741.6c-2.5-2.5-2.5-6.5,0-8.9l258.9-258.5c2.5-2.5,6.5-2.5,8.9,0l0,0
						c2.5,2.5,2.5,6.5,0,8.9l-258.9,258.5C237.8,1744.1,233.8,1744.1,231.3,1741.6z"/>
				</g>
				<g>
					<path class="st5" d="M188.7,1739.5L188.7,1739.5c-2.5-2.5-2.5-6.5,0-8.9l308.2-307.8c2.5-2.5,6.5-2.5,8.9,0l0,0
						c2.5,2.5,2.5,6.5,0,8.9l-308.2,307.8C195.2,1742,191.2,1742,188.7,1739.5z"/>
				</g>
				<g>
					<path class="st5" d="M150.8,1732.7L150.8,1732.7c-2.5-2.5-2.5-6.5,0-8.9l346.8-346.3c2.5-2.5,6.5-2.5,8.9,0l0,0
						c2.5,2.5,2.5,6.5,0,8.9l-346.9,346.3C157.3,1735.1,153.3,1735.1,150.8,1732.7z"/>
				</g>
				<g>
					<path class="st5" d="M116.3,1722.4L116.3,1722.4c-2.5-2.5-2.5-6.5,0-8.9l377.9-377.4c2.5-2.5,6.5-2.5,8.9,0l0,0
						c2.5,2.5,2.5,6.5,0,8.9l-377.9,377.4C122.8,1724.9,118.8,1724.9,116.3,1722.4z"/>
				</g>
				<g>
					<path class="st5" d="M84.6,1709.5L84.6,1709.5c-2.5-2.5-2.5-6.5,0-8.9L487.8,1298c2.5-2.5,6.5-2.5,8.9,0l0,0
						c2.5,2.5,2.5,6.5,0,8.9L93.5,1709.5C91,1712,87,1712,84.6,1709.5z"/>
				</g>
				<g>
					<path class="st5" d="M55,1694.3L55,1694.3c-2.5-2.5-2.5-6.5,0-8.9l423.7-423.1c2.5-2.5,6.5-2.5,8.9,0l0,0
						c2.5,2.5,2.5,6.5,0,8.9L64,1694.3C61.5,1696.8,57.5,1696.8,55,1694.3z"/>
				</g>
				<g>
					<path class="st5" d="M27.6,1677L27.6,1677c-2.5-2.5-2.5-6.5,0-8.9l440.1-439.5c2.5-2.5,6.5-2.5,8.9,0l0,0
						c2.5,2.5,2.5,6.5,0,8.9L36.6,1677C34.1,1679.5,30.1,1679.5,27.6,1677z"/>
				</g>
				<g>
					<path class="st5" d="M2.1,1657.8L2.1,1657.8c-2.5-2.5-2.5-6.5,0-8.9l452.8-452.1c2.5-2.5,6.5-2.5,8.9,0l0,0
						c2.5,2.5,2.5,6.5,0,8.9L11.1,1657.8C8.6,1660.3,4.6,1660.3,2.1,1657.8z"/>
				</g>
				<g>
					<path class="st5" d="M-21.4,1636.7L-21.4,1636.7c-2.5-2.5-2.5-6.5,0-8.9l462-461.3c2.5-2.5,6.5-2.5,8.9,0l0,0
						c2.5,2.5,2.5,6.5,0,8.9l-462,461.3C-15,1639.2-19,1639.2-21.4,1636.7z"/>
				</g>
				<g>
					<path class="st5" d="M-43.6,1614.1L-43.6,1614.1c-2.5-2.5-2.5-6.5,0-8.9l468.4-467.7c2.5-2.5,6.5-2.5,8.9,0l0,0
						c2.5,2.5,2.5,6.5,0,8.9l-468.4,467.7C-37.1,1616.6-41.1,1616.6-43.6,1614.1z"/>
				</g>
				<g>
					<path class="st5" d="M-66,1591.9L-66,1591.9c-2.5-2.5-2.5-6.5,0-8.9l474-473.3c2.5-2.5,6.5-2.5,8.9,0l0,0
						c2.5,2.5,2.5,6.5,0,8.9l-474,473.3C-59.6,1594.4-63.6,1594.4-66,1591.9z"/>
				</g>
				<g>
					<path class="st5" d="M-89.4,1570.5L-89.4,1570.5c-2.5-2.5-2.5-6.5,0-8.9l479.2-478.4c2.5-2.5,6.5-2.5,8.9,0l0,0
						c2.5,2.5,2.5,6.5,0,8.9l-479.2,478.4C-82.9,1572.9-86.9,1572.9-89.4,1570.5z"/>
				</g>
				<g>
					<path class="st5" d="M-113.7,1550.1L-113.7,1550.1c-2.5-2.5-2.5-6.5,0-8.9l484.3-483.5c2.5-2.5,6.5-2.5,8.9,0l0,0
						c2.5,2.5,2.5,6.5,0,8.9l-484.3,483.5C-107.2,1552.5-111.2,1552.5-113.7,1550.1z"/>
				</g>
				<g>
					<path class="st5" d="M-139.3,1531.1L-139.3,1531.1c-2.5-2.5-2.5-6.5,0-8.9l489.7-488.9c2.5-2.5,6.5-2.5,8.9,0l0,0
						c2.5,2.5,2.5,6.5,0,8.9l-489.7,488.9C-132.9,1533.5-136.9,1533.5-139.3,1531.1z"/>
				</g>
				<g>
					<path class="st5" d="M-166.8,1513.8L-166.8,1513.8c-2.5-2.5-2.5-6.5,0-8.9l495.7-494.9c2.5-2.5,6.5-2.5,8.9,0l0,0
						c2.5,2.5,2.5,6.5,0,8.9l-495.7,494.9C-160.3,1516.2-164.3,1516.2-166.8,1513.8z"/>
				</g>
				<g>
					<path class="st5" d="M-196.4,1498.7L-196.4,1498.7c-2.5-2.5-2.5-6.5,0-8.9l502.9-502.1c2.5-2.5,6.5-2.5,8.9,0l0,0
						c2.5,2.5,2.5,6.5,0,8.9l-502.9,502.1C-190,1501.2-194,1501.2-196.4,1498.7z"/>
				</g>
				<g>
					<path class="st5" d="M-228.9,1486.5L-228.9,1486.5c-2.5-2.5-2.5-6.5,0-8.9l511.5-510.6c2.5-2.5,6.5-2.5,8.9,0l0,0
						c2.5,2.5,2.5,6.5,0,8.9l-511.5,510.6C-222.4,1489-226.4,1489-228.9,1486.5z"/>
				</g>
				<g>
					<path class="st5" d="M-264.7,1477.6L-264.7,1477.6c-2.5-2.5-2.5-6.5,0-8.9l521.9-521.1c2.5-2.5,6.5-2.5,8.9,0l0,0
						c2.5,2.5,2.5,6.5,0,8.9l-521.9,521.1C-258.2,1480-262.2,1480-264.7,1477.6z"/>
				</g>
				<g>
					<path class="st5" d="M-304.4,1472.5L-304.4,1472.5c-2.5-2.5-2.5-6.5,0-8.9l535.1-534.3c2.5-2.5,6.5-2.5,8.9,0l0,0
						c2.5,2.5,2.5,6.5,0,8.9l-535.1,534.3C-297.9,1475-301.9,1475-304.4,1472.5z"/>
				</g>
				<g>
					<path class="st5" d="M-348.4,1471.9L-348.4,1471.9c-2.5-2.5-2.5-6.5,0-8.9l551.5-550.7c2.5-2.5,6.5-2.5,8.9,0l0,0
						c2.5,2.5,2.5,6.5,0,8.9l-551.5,550.7C-342,1474.3-346,1474.3-348.4,1471.9z"/>
				</g>
				<g>
					<path class="st5" d="M-397.1,1475.8L-397.1,1475.8c-2.5-2.5-2.5-6.5,0-8.9l571.7-570.8c2.5-2.5,6.5-2.5,8.9,0h0
						c2.5,2.5,2.5,6.5,0,8.9l-571.7,570.8C-390.7,1478.3-394.7,1478.3-397.1,1475.8z"/>
				</g>
				<g>
					<path class="st5" d="M-450.6,1484.5L-450.6,1484.5c-2.5-2.5-2.5-6.5,0-8.9l595.6-594.7c2.5-2.5,6.5-2.5,8.9,0h0
						c2.5,2.5,2.5,6.5,0,8.9l-595.6,594.7C-444.2,1487-448.2,1487-450.6,1484.5z"/>
				</g>
				<g>
					<path class="st5" d="M-507.9,1497.1L-507.9,1497.1c-2.5-2.5-2.5-6.5,0-8.9l622.3-621.4c2.5-2.5,6.5-2.5,8.9,0h0
						c2.5,2.5,2.5,6.5,0,8.9L-499,1497.1C-501.5,1499.6-505.5,1499.6-507.9,1497.1z"/>
				</g>
				<g>
					<path class="st5" d="M-560.8,1505.2L-560.8,1505.2c-2.5-2.5-2.5-6.5,0-8.9L82.8,853.7c2.5-2.5,6.5-2.5,8.9,0l0,0
						c2.5,2.5,2.5,6.5,0,8.9l-643.6,642.6C-554.3,1507.7-558.3,1507.7-560.8,1505.2z"/>
				</g>
				<g>
					<path class="st5" d="M-607.6,1507.3L-607.6,1507.3c-2.5-2.5-2.5-6.5,0-8.9L50.2,841.6c2.5-2.5,6.5-2.5,8.9,0l0,0
						c2.5,2.5,2.5,6.5,0,8.9l-657.8,656.8C-601.1,1509.7-605.1,1509.7-607.6,1507.3z"/>
				</g>
				<g>
					<path class="st5" d="M-649.6,1504.6L-649.6,1504.6c-2.5-2.5-2.5-6.5,0-8.9L16.5,830.5c2.5-2.5,6.5-2.5,8.9,0h0
						c2.5,2.5,2.5,6.5,0,8.9l-666.1,665.1C-643.1,1507-647.1,1507-649.6,1504.6z"/>
				</g>
				<g>
					<path class="st5" d="M-687.5,1497.8L-687.5,1497.8c-2.5-2.5-2.5-6.5,0-8.9l669.1-668.1c2.5-2.5,6.5-2.5,8.9,0h0
						c2.5,2.5,2.5,6.5,0,8.9l-669.1,668.1C-681,1500.2-685,1500.2-687.5,1497.8z"/>
				</g>
				<g>
					<path class="st5" d="M-721.9,1487.4L-721.9,1487.4c-2.5-2.5-2.5-6.5,0-8.9l667.2-666.2c2.5-2.5,6.5-2.5,8.9,0h0
						c2.5,2.5,2.5,6.5,0,8.9l-667.2,666.2C-715.4,1489.9-719.4,1489.9-721.9,1487.4z"/>
				</g>
				<g>
					<path class="st5" d="M-753,1473.9L-753,1473.9c-2.5-2.5-2.5-6.5,0-8.9l660.8-659.7c2.5-2.5,6.5-2.5,8.9,0l0,0
						c2.5,2.5,2.5,6.5,0,8.9l-660.8,659.7C-746.6,1476.3-750.6,1476.3-753,1473.9z"/>
				</g>
				<g>
					<path class="st5" d="M-781.1,1457.2L-781.1,1457.2c-2.5-2.5-2.5-6.5,0-8.9l649.6-648.6c2.5-2.5,6.5-2.5,8.9,0h0
						c2.5,2.5,2.5,6.5,0,8.9l-649.6,648.6C-774.6,1459.7-778.6,1459.7-781.1,1457.2z"/>
				</g>
				<g>
					<path class="st5" d="M-806.4,1437.8L-806.4,1437.8c-2.5-2.5-2.5-6.5,0-8.9L-172.6,796c2.5-2.5,6.5-2.5,8.9,0l0,0
						c2.5,2.5,2.5,6.5,0,8.9l-633.8,632.8C-799.9,1440.2-803.9,1440.2-806.4,1437.8z"/>
				</g>
				<g>
					<path class="st5" d="M-828.7,1415.4L-828.7,1415.4c-2.5-2.5-2.5-6.5,0-8.9l613-612.1c2.5-2.5,6.5-2.5,8.9,0l0,0
						c2.5,2.5,2.5,6.5,0,8.9l-613,612.1C-822.2,1417.8-826.2,1417.8-828.7,1415.4z"/>
				</g>
				<g>
					<path class="st5" d="M-848,1390L-848,1390c-2.5-2.5-2.5-6.5,0-8.9l586.9-586c2.5-2.5,6.5-2.5,8.9,0l0,0c2.5,2.5,2.5,6.5,0,8.9
						l-586.9,586C-841.5,1392.5-845.5,1392.5-848,1390z"/>
				</g>
				<g>
					<path class="st5" d="M-864,1361.3L-864,1361.3c-2.5-2.5-2.5-6.5,0-8.9l554.6-553.8c2.5-2.5,6.5-2.5,8.9,0l0,0
						c2.5,2.5,2.5,6.5,0,8.9l-554.6,553.8C-857.5,1363.8-861.6,1363.8-864,1361.3z"/>
				</g>
				<g>
					<path class="st5" d="M-876.1,1328.8L-876.1,1328.8c-2.5-2.5-2.5-6.5,0-8.9l514.9-514.1c2.5-2.5,6.5-2.5,8.9,0l0,0
						c2.5,2.5,2.5,6.5,0,8.9l-514.9,514.1C-869.7,1331.2-873.7,1331.2-876.1,1328.8z"/>
				</g>
				<g>
					<path class="st5" d="M-883.3,1291.3L-883.3,1291.3c-2.5-2.5-2.5-6.5,0-8.9l465.8-465c2.5-2.5,6.5-2.5,8.9,0h0
						c2.5,2.5,2.5,6.5,0,8.9l-465.8,465C-876.8,1293.7-880.8,1293.7-883.3,1291.3z"/>
				</g>
				<g>
					<path class="st5" d="M-884.5,1247.8L-884.5,1247.8c-2.5-2.5-2.5-6.5,0-8.9l404.5-403.9c2.5-2.5,6.5-2.5,8.9,0v0
						c2.5,2.5,2.5,6.5,0,8.9l-404.5,403.9C-878,1250.3-882,1250.3-884.5,1247.8z"/>
				</g>
				<g>
					<path class="st5" d="M-876.9,1195.5L-876.9,1195.5c-2.5-2.5-2.5-6.5,0-8.9l325.8-325.3c2.5-2.5,6.5-2.5,8.9,0h0
						c2.5,2.5,2.5,6.5,0,8.9l-325.8,325.2C-870.4,1198-874.4,1198-876.9,1195.5z"/>
				</g>
				<g>
					<path class="st5" d="M-851.5,1125.6L-851.5,1125.6c-2.5-2.5-2.5-6.5,0-8.9l214.2-213.9c2.5-2.5,6.5-2.5,8.9,0l0,0
						c2.5,2.5,2.5,6.5,0,8.9l-214.2,213.9C-845.1,1128-849.1,1128-851.5,1125.6z"/>
				</g>
				<g>
					<path class="st5" d="M-815.3,1044.7L-815.3,1044.7c-2.5-2.5-2.5-6.5,0-8.9L-707,927.7c2.5-2.5,6.5-2.5,8.9,0h0
						c2.5,2.5,2.5,6.5,0,8.9l-108.3,108.1C-808.8,1047.2-812.8,1047.2-815.3,1044.7z"/>
				</g>
			</g>
		</g>
		<circle class="st5" cx="910.1" cy="1065.2" r="158.5"/>
		<circle class="st6" cx="-632.7" cy="237.8" r="118.9"/>
		<path class="st7" d="M-390.8,246.3c-86.1,174.2,56,340.5-57.5,655.5c-92.3,256.1,83,435.4,192.5,474.1
			c109.4,38.8,198.9,16.8,329.8-56.2c130.9-73,290.2-57.2,351.1-43.9c60.9,13.3,321.3,37.4,440.1-161.5
			c155.4-260.2-28.3-667.1-395.1-637.9c-199.6,15.9-287.7-185.8-348.6-268.1C48.1,109.3-51.9,42.1-171.5,69.6
			C-261.5,90.4-343.2,150.2-390.8,246.3z"/>
		<path class="st8" d="M497.2,1038.7c118.7-43.4,210.7-25.9,297,19.5c86.3,45.3,126.6,122.8,149.6,175.6
			c36.8,84.2,41.1,247.9-75.5,294.4c-131.3,52.3-192.3-70.6-225.4-101.3c-49-45.4-108.7-61.5-198.9-42.1
			c-90.2,19.4-126.9-73.2-118.7-129.4C337.1,1175.7,378.5,1082.1,497.2,1038.7z"/>
		<path class="st9" d="M-703.3,1035.2c109.7,113,249.6,134.1,352.8,116.3c138.4-23.7,275.4-129.7,318.1-290.3
			c37.1-139.5-31-255.3-208.6-208c-114.7,30.5-192-43.9-230.4-114.3c-82-150.5-262.4-74.6-312.7,126.5
			C-834.2,866.5-747.9,989.2-703.3,1035.2z"/>
		<g>
			<path class="st9" d="M159.8,147.4c58.6,0,106.2,47.6,106.2,106.2c0,58.6-47.6,106.2-106.2,106.2c-58.6,0-106.2-47.6-106.2-106.2
				C53.6,195,101.2,147.4,159.8,147.4L159.8,147.4z M159.8,134.7c-65.7,0-118.9,53.2-118.9,118.9c0,65.7,53.2,118.9,118.9,118.9
				c65.7,0,118.9-53.2,118.9-118.9C278.6,187.9,225.4,134.7,159.8,134.7L159.8,134.7z"/>
		</g>
		<path class="st6" d="M1124.1,1391c36.7,0,66.6,29.9,66.6,66.6c0,36.7-29.9,66.6-66.6,66.6c-36.7,0-66.6-29.9-66.6-66.6
			C1057.5,1420.9,1087.4,1391,1124.1,1391L1124.1,1391z M1124.1,1378.3c-43.8,0-79.3,35.5-79.3,79.3c0,43.8,35.5,79.3,79.3,79.3
			c43.8,0,79.3-35.5,79.3-79.3C1203.3,1413.8,1167.9,1378.3,1124.1,1378.3L1124.1,1378.3z"/>
		<path class="st9" d="M-553.5,290.1c14.9,0,26.9,12.1,26.9,26.9s-12.1,26.9-26.9,26.9c-14.9,0-26.9-12.1-26.9-26.9
			S-568.3,290.1-553.5,290.1L-553.5,290.1z M-553.5,277.4c-21.9,0-39.6,17.7-39.6,39.6c0,21.9,17.7,39.6,39.6,39.6
			c21.9,0,39.6-17.7,39.6-39.6C-513.9,295.1-531.6,277.4-553.5,277.4L-553.5,277.4z"/>
		<path class="st10" d="M644.6,259.9c-8.6,94,21.7,157,71.1,210.6c49.4,53.6,113.2,67.8,155.8,74.3c68,10.4,187.3-17.8,198.5-110.8
			c12.7-104.7-88-125.3-116.5-143.2c-42.3-26.6-65.3-66.6-68.6-135.4c-3.3-68.8-77.3-77.5-116.4-60.9
			C713,118.1,653.3,165.9,644.6,259.9z"/>
		<g>
			<g>
				<path class="st5" d="M767.2,215.4L641.8,89.9c-2.4-2.4-2.4-6.4,0-8.9l0,0c2.4-2.4,6.4-2.4,8.9,0l125.4,125.4
					c2.4,2.4,2.4,6.4,0,8.9l0,0C773.6,217.8,769.7,217.8,767.2,215.4z"/>
			</g>
			<g>
				<path class="st5" d="M750.4,153.8l-47.1-47.1c-2.4-2.4-2.4-6.4,0-8.9l0,0c2.4-2.4,6.4-2.4,8.9,0l47.1,47.1
					c2.4,2.4,2.4,6.4,0,8.9l0,0C756.8,156.3,752.9,156.3,750.4,153.8z"/>
			</g>
			<g>
				<path class="st5" d="M767.2,260.1L597,89.9c-2.4-2.4-2.4-6.4,0-8.9l0,0c2.4-2.4,6.4-2.4,8.9,0l170.2,170.2
					c2.4,2.4,2.4,6.4,0,8.9l0,0C773.6,262.6,769.7,262.6,767.2,260.1z"/>
			</g>
			<g>
				<path class="st5" d="M757.9,295.5L561.6,99.3c-2.4-2.4-2.4-6.4,0-8.9l0,0c2.4-2.4,6.4-2.4,8.9,0l196.3,196.3
					c2.4,2.4,2.4,6.4,0,8.9l0,0C764.3,298,760.3,298,757.9,295.5z"/>
			</g>
			<g>
				<path class="st5" d="M742.6,325L532.2,114.6c-2.4-2.4-2.4-6.4,0-8.9l0,0c2.4-2.4,6.4-2.4,8.9,0l210.4,210.4
					c2.4,2.4,2.4,6.4,0,8.9l0,0C749,327.4,745,327.4,742.6,325z"/>
			</g>
			<g>
				<path class="st5" d="M722.4,349.6L507.5,134.7c-2.4-2.4-2.4-6.4,0-8.9l0,0c2.4-2.4,6.4-2.4,8.9,0l214.9,214.9
					c2.4,2.4,2.4,6.4,0,8.9l0,0C728.8,352.1,724.9,352.1,722.4,349.6z"/>
			</g>
			<g>
				<path class="st5" d="M697.8,369.8L487.4,159.4c-2.4-2.4-2.4-6.4,0-8.9l0,0c2.4-2.4,6.4-2.4,8.9,0l210.4,210.4
					c2.4,2.4,2.4,6.4,0,8.9l0,0C704.2,372.2,700.2,372.2,697.8,369.8z"/>
			</g>
			<g>
				<path class="st5" d="M668.3,385.1L472.1,188.8c-2.4-2.4-2.4-6.4,0-8.9l0,0c2.4-2.4,6.4-2.4,8.9,0l196.3,196.3
					c2.4,2.4,2.4,6.4,0,8.9l0,0C674.8,387.5,670.8,387.5,668.3,385.1z"/>
			</g>
			<g>
				<path class="st5" d="M632.9,394.4L462.7,224.2c-2.4-2.4-2.4-6.4,0-8.9l0,0c2.4-2.4,6.4-2.4,8.9,0l170.2,170.2
					c2.4,2.4,2.4,6.4,0,8.9l0,0C639.3,396.9,635.4,396.9,632.9,394.4z"/>
			</g>
			<g>
				<path class="st5" d="M588.2,394.4L462.7,269c-2.4-2.4-2.4-6.4,0-8.9l0,0c2.4-2.4,6.4-2.4,8.9,0L597,385.6c2.4,2.4,2.4,6.4,0,8.9
					l0,0C594.6,396.9,590.6,396.9,588.2,394.4z"/>
			</g>
			<g>
				<path class="st5" d="M526.6,377.6l-47.1-47.1c-2.4-2.4-2.4-6.4,0-8.9l0,0c2.4-2.4,6.4-2.4,8.9,0l47.1,47.1
					c2.4,2.4,2.4,6.4,0,8.9l0,0C533,380.1,529.1,380.1,526.6,377.6z"/>
			</g>
		</g>
	</g>
	<g class="st4">
		<g>
			<g>
				<g>
					<path class="st5" d="M2972.1,722.7L2972.1,722.7c-2.5-2.5-2.5-6.5,0-8.9l76.1-76c2.5-2.5,6.5-2.5,8.9,0l0,0
						c2.5,2.5,2.5,6.5,0,8.9l-76.1,76C2978.5,725.2,2974.5,725.2,2972.1,722.7z"/>
				</g>
				<g>
					<path class="st5" d="M2897.3,752.7L2897.3,752.7c-2.5-2.5-2.5-6.5,0-8.9l194.4-194.1v-0.1l2-1.9l2.5,2.6c1.2,1.2,2.8,1.9,4.5,2
						l3.6,0v2.6l-198.1,197.8C2903.8,755.2,2899.8,755.2,2897.3,752.7z"/>
				</g>
				<g>
					<path class="st5" d="M2846.6,758.7L2846.6,758.7c-2.5-2.5-2.5-6.5,0-8.9l258.9-258.5c2.5-2.5,6.5-2.5,8.9,0l0,0
						c2.5,2.5,2.5,6.5,0,8.9l-258.9,258.5C2853,761.2,2849,761.2,2846.6,758.7z"/>
				</g>
				<g>
					<path class="st5" d="M2803.9,756.6L2803.9,756.6c-2.5-2.5-2.5-6.5,0-8.9l308.2-307.8c2.5-2.5,6.5-2.5,8.9,0l0,0
						c2.5,2.5,2.5,6.5,0,8.9l-308.2,307.8C2810.4,759.1,2806.4,759.1,2803.9,756.6z"/>
				</g>
				<g>
					<path class="st5" d="M2766.1,749.7L2766.1,749.7c-2.5-2.5-2.5-6.5,0-8.9l346.9-346.3c2.5-2.5,6.5-2.5,8.9,0l0,0
						c2.5,2.5,2.5,6.5,0,8.9L2775,749.7C2772.5,752.2,2768.5,752.2,2766.1,749.7z"/>
				</g>
				<g>
					<path class="st5" d="M2731.6,739.5L2731.6,739.5c-2.5-2.5-2.5-6.5,0-8.9l377.9-377.4c2.5-2.5,6.5-2.5,8.9,0l0,0
						c2.5,2.5,2.5,6.5,0,8.9l-377.9,377.4C2738.1,741.9,2734.1,741.9,2731.6,739.5z"/>
				</g>
				<g>
					<path class="st5" d="M2699.8,726.6L2699.8,726.6c-2.5-2.5-2.5-6.5,0-8.9L3103,315c2.5-2.5,6.5-2.5,8.9,0l0,0
						c2.5,2.5,2.5,6.5,0,8.9l-403.2,402.6C2706.3,729,2702.3,729,2699.8,726.6z"/>
				</g>
				<g>
					<path class="st5" d="M2670.3,711.4L2670.3,711.4c-2.5-2.5-2.5-6.5,0-8.9L3094,279.3c2.5-2.5,6.5-2.5,8.9,0l0,0
						c2.5,2.5,2.5,6.5,0,8.9l-423.7,423.1C2676.8,713.8,2672.8,713.8,2670.3,711.4z"/>
				</g>
				<g>
					<path class="st5" d="M2642.9,694.1L2642.9,694.1c-2.5-2.5-2.5-6.5,0-8.9L3083,245.7c2.5-2.5,6.5-2.5,8.9,0l0,0
						c2.5,2.5,2.5,6.5,0,8.9l-440.1,439.5C2649.3,696.6,2645.3,696.6,2642.9,694.1z"/>
				</g>
				<g>
					<path class="st5" d="M2617.4,674.9L2617.4,674.9c-2.5-2.5-2.5-6.5,0-8.9l452.8-452.1c2.5-2.5,6.5-2.5,8.9,0l0,0
						c2.5,2.5,2.5,6.5,0,8.9l-452.8,452.1C2623.8,677.3,2619.8,677.3,2617.4,674.9z"/>
				</g>
				<g>
					<path class="st5" d="M2593.8,653.8L2593.8,653.8c-2.5-2.5-2.5-6.5,0-8.9l462-461.3c2.5-2.5,6.5-2.5,8.9,0l0,0
						c2.5,2.5,2.5,6.5,0,8.9l-462,461.3C2600.3,656.2,2596.3,656.2,2593.8,653.8z"/>
				</g>
				<g>
					<path class="st5" d="M2571.7,631.2L2571.7,631.2c-2.5-2.5-2.5-6.5,0-8.9l468.4-467.7c2.5-2.5,6.5-2.5,8.9,0l0,0
						c2.5,2.5,2.5,6.5,0,8.9l-468.4,467.7C2578.2,633.6,2574.2,633.6,2571.7,631.2z"/>
				</g>
				<g>
					<path class="st5" d="M2549.2,609L2549.2,609c-2.5-2.5-2.5-6.5,0-8.9l474-473.3c2.5-2.5,6.5-2.5,8.9,0l0,0
						c2.5,2.5,2.5,6.5,0,8.9l-474,473.3C2555.7,611.4,2551.7,611.4,2549.2,609z"/>
				</g>
				<g>
					<path class="st5" d="M2525.9,587.5L2525.9,587.5c-2.5-2.5-2.5-6.5,0-8.9l479.2-478.4c2.5-2.5,6.5-2.5,8.9,0l0,0
						c2.5,2.5,2.5,6.5,0,8.9l-479.2,478.4C2532.4,590,2528.4,590,2525.9,587.5z"/>
				</g>
				<g>
					<path class="st5" d="M2501.6,567.1L2501.6,567.1c-2.5-2.5-2.5-6.5,0-8.9l484.3-483.5c2.5-2.5,6.5-2.5,8.9,0l0,0
						c2.5,2.5,2.5,6.5,0,8.9l-484.3,483.5C2508.1,569.6,2504.1,569.6,2501.6,567.1z"/>
				</g>
				<g>
					<path class="st5" d="M2475.9,548.1L2475.9,548.1c-2.5-2.5-2.5-6.5,0-8.9l489.7-488.9c2.5-2.5,6.5-2.5,8.9,0l0,0
						c2.5,2.5,2.5,6.5,0,8.9l-489.7,488.9C2482.4,550.6,2478.4,550.6,2475.9,548.1z"/>
				</g>
				<g>
					<path class="st5" d="M2448.5,530.8L2448.5,530.8c-2.5-2.5-2.5-6.5,0-8.9L2944.2,27c2.5-2.5,6.5-2.5,8.9,0l0,0
						c2.5,2.5,2.5,6.5,0,8.9l-495.7,494.9C2455,533.3,2451,533.3,2448.5,530.8z"/>
				</g>
				<g>
					<path class="st5" d="M2418.8,515.8L2418.8,515.8c-2.5-2.5-2.5-6.5,0-8.9L2921.7,4.8c2.5-2.5,6.5-2.5,8.9,0l0,0
						c2.5,2.5,2.5,6.5,0,8.9l-502.9,502.1C2425.3,518.3,2421.3,518.3,2418.8,515.8z"/>
				</g>
				<g>
					<path class="st5" d="M2386.4,503.5L2386.4,503.5c-2.5-2.5-2.5-6.5,0-8.9L2897.8-16c2.5-2.5,6.5-2.5,8.9,0l0,0
						c2.5,2.5,2.5,6.5,0,8.9l-511.5,510.6C2392.8,506,2388.8,506,2386.4,503.5z"/>
				</g>
				<g>
					<path class="st5" d="M2350.6,494.6L2350.6,494.6c-2.5-2.5-2.5-6.5,0-8.9l521.9-521.1c2.5-2.5,6.5-2.5,8.9,0l0,0
						c2.5,2.5,2.5,6.5,0,8.9l-521.9,521.1C2357,497.1,2353,497.1,2350.6,494.6z"/>
				</g>
				<g>
					<path class="st5" d="M2310.9,489.6L2310.9,489.6c-2.5-2.5-2.5-6.5,0-8.9L2846-53.6c2.5-2.5,6.5-2.5,8.9,0l0,0
						c2.5,2.5,2.5,6.5,0,8.9l-535.1,534.3C2317.4,492.1,2313.4,492.1,2310.9,489.6z"/>
				</g>
				<g>
					<path class="st5" d="M2266.8,488.9L2266.8,488.9c-2.5-2.5-2.5-6.5,0-8.9l551.5-550.7c2.5-2.5,6.5-2.5,8.9,0l0,0
						c2.5,2.5,2.5,6.5,0,8.9l-551.5,550.7C2273.3,491.4,2269.3,491.4,2266.8,488.9z"/>
				</g>
				<g>
					<path class="st5" d="M2218.1,492.9L2218.1,492.9c-2.5-2.5-2.5-6.5,0-8.9l571.7-570.8c2.5-2.5,6.5-2.5,8.9,0v0
						c2.5,2.5,2.5,6.5,0,8.9l-571.7,570.8C2224.6,495.3,2220.6,495.3,2218.1,492.9z"/>
				</g>
				<g>
					<path class="st5" d="M2164.6,501.6L2164.6,501.6c-2.5-2.5-2.5-6.5,0-8.9L2760.2-102c2.5-2.5,6.5-2.5,8.9,0l0,0
						c2.5,2.5,2.5,6.5,0,8.9l-595.6,594.7C2171.1,504.1,2167.1,504.1,2164.6,501.6z"/>
				</g>
				<g>
					<path class="st5" d="M2107.3,514.2L2107.3,514.2c-2.5-2.5-2.5-6.5,0-8.9l622.3-621.4c2.5-2.5,6.5-2.5,8.9,0l0,0
						c2.5,2.5,2.5,6.5,0,8.9l-622.3,621.4C2113.8,516.6,2109.8,516.6,2107.3,514.2z"/>
				</g>
				<g>
					<path class="st5" d="M2054.5,522.2L2054.5,522.2c-2.5-2.5-2.5-6.5,0-8.9l643.6-642.6c2.5-2.5,6.5-2.5,8.9,0l0,0
						c2.5,2.5,2.5,6.5,0,8.9l-643.6,642.6C2061,524.7,2057,524.7,2054.5,522.2z"/>
				</g>
				<g>
					<path class="st5" d="M2007.7,524.3L2007.7,524.3c-2.5-2.5-2.5-6.5,0-8.9l657.8-656.8c2.5-2.5,6.5-2.5,8.9,0v0
						c2.5,2.5,2.5,6.5,0,8.9l-657.8,656.8C2014.1,526.8,2010.1,526.8,2007.7,524.3z"/>
				</g>
				<g>
					<path class="st5" d="M1965.7,521.6L1965.7,521.6c-2.5-2.5-2.5-6.5,0-8.9l666.1-665.1c2.5-2.5,6.5-2.5,8.9,0v0
						c2.5,2.5,2.5,6.5,0,8.9l-666.1,665.1C1972.1,524.1,1968.1,524.1,1965.7,521.6z"/>
				</g>
				<g>
					<path class="st5" d="M1927.7,514.8L1927.7,514.8c-2.5-2.5-2.5-6.5,0-8.9l669.1-668.1c2.5-2.5,6.5-2.5,8.9,0v0
						c2.5,2.5,2.5,6.5,0,8.9l-669.1,668.1C1934.2,517.3,1930.2,517.3,1927.7,514.8z"/>
				</g>
				<g>
					<path class="st5" d="M1893.4,504.5L1893.4,504.5c-2.5-2.5-2.5-6.5,0-8.9l667.2-666.2c2.5-2.5,6.5-2.5,8.9,0v0
						c2.5,2.5,2.5,6.5,0,8.9l-667.2,666.2C1899.9,506.9,1895.9,506.9,1893.4,504.5z"/>
				</g>
				<g>
					<path class="st5" d="M1862.2,490.9L1862.2,490.9c-2.5-2.5-2.5-6.5,0-8.9L2523-177.8c2.5-2.5,6.5-2.5,8.9,0v0
						c2.5,2.5,2.5,6.5,0,8.9l-660.8,659.7C1868.7,493.4,1864.7,493.4,1862.2,490.9z"/>
				</g>
				<g>
					<path class="st5" d="M1834.1,474.3L1834.1,474.3c-2.5-2.5-2.5-6.5,0-8.9l649.6-648.6c2.5-2.5,6.5-2.5,8.9,0l0,0
						c2.5,2.5,2.5,6.5,0,8.9l-649.6,648.6C1840.6,476.8,1836.6,476.8,1834.1,474.3z"/>
				</g>
				<g>
					<path class="st5" d="M1808.9,454.8L1808.9,454.8c-2.5-2.5-2.5-6.5,0-8.9L2442.7-187c2.5-2.5,6.5-2.5,8.9,0v0
						c2.5,2.5,2.5,6.5,0,8.9l-633.8,632.8C1815.3,457.3,1811.3,457.3,1808.9,454.8z"/>
				</g>
				<g>
					<path class="st5" d="M1786.6,432.4L1786.6,432.4c-2.5-2.5-2.5-6.5,0-8.9l613-612.1c2.5-2.5,6.5-2.5,8.9,0l0,0
						c2.5,2.5,2.5,6.5,0,8.9l-613,612.1C1793,434.9,1789,434.9,1786.6,432.4z"/>
				</g>
				<g>
					<path class="st5" d="M1767.2,407.1L1767.2,407.1c-2.5-2.5-2.5-6.5,0-8.9l586.9-586c2.5-2.5,6.5-2.5,8.9,0l0,0
						c2.5,2.5,2.5,6.5,0,8.9l-586.9,586C1773.7,409.5,1769.7,409.5,1767.2,407.1z"/>
				</g>
				<g>
					<path class="st5" d="M1751.2,378.4L1751.2,378.4c-2.5-2.5-2.5-6.5,0-8.9l554.6-553.8c2.5-2.5,6.5-2.5,8.9,0l0,0
						c2.5,2.5,2.5,6.5,0,8.9l-554.6,553.8C1757.7,380.8,1753.7,380.8,1751.2,378.4z"/>
				</g>
				<g>
					<path class="st5" d="M1739.1,345.8L1739.1,345.8c-2.5-2.5-2.5-6.5,0-8.9L2254-177.2c2.5-2.5,6.5-2.5,8.9,0l0,0
						c2.5,2.5,2.5,6.5,0,8.9l-514.9,514.1C1745.6,348.3,1741.6,348.3,1739.1,345.8z"/>
				</g>
				<g>
					<path class="st5" d="M1731.9,308.3L1731.9,308.3c-2.5-2.5-2.5-6.5,0-8.9l465.8-465c2.5-2.5,6.5-2.5,8.9,0h0
						c2.5,2.5,2.5,6.5,0,8.9l-465.8,465C1738.4,310.8,1734.4,310.8,1731.9,308.3z"/>
				</g>
				<g>
					<path class="st5" d="M1730.8,264.8L1730.8,264.8c-2.5-2.5-2.5-6.5,0-8.9L2135.3-148c2.5-2.5,6.5-2.5,8.9,0l0,0
						c2.5,2.5,2.5,6.5,0,8.9l-404.5,403.9C1737.2,267.3,1733.2,267.3,1730.8,264.8z"/>
				</g>
				<g>
					<path class="st5" d="M1738.4,212.6L1738.4,212.6c-2.5-2.5-2.5-6.5,0-8.9l325.8-325.3c2.5-2.5,6.5-2.5,8.9,0l0,0
						c2.5,2.5,2.5,6.5,0,8.9l-325.8,325.2C1744.9,215,1740.9,215,1738.4,212.6z"/>
				</g>
				<g>
					<path class="st5" d="M1763.7,142.6L1763.7,142.6c-2.5-2.5-2.5-6.5,0-8.9l214.2-213.9c2.5-2.5,6.5-2.5,8.9,0l0,0
						c2.5,2.5,2.5,6.5,0,8.9l-214.2,213.9C1770.2,145.1,1766.2,145.1,1763.7,142.6z"/>
				</g>
				<g>
					<path class="st5" d="M1800,61.8L1800,61.8c-2.5-2.5-2.5-6.5,0-8.9l108.3-108.1c2.5-2.5,6.5-2.5,8.9,0l0,0
						c2.5,2.5,2.5,6.5,0,8.9L1808.9,61.8C1806.4,64.2,1802.4,64.2,1800,61.8z"/>
				</g>
			</g>
		</g>
		<circle class="st5" cx="3525.3" cy="82.2" r="158.5"/>
		<circle class="st11" cx="2980.5" cy="927.5" r="118.9"/>
		<path class="st7" d="M2224.5-736.6c-86.1,174.2,56,340.5-57.5,655.5c-92.3,256.1,83,435.4,192.5,474.1
			c109.4,38.8,198.9,16.8,329.8-56.2c130.9-73,290.2-57.2,351.1-43.9c60.9,13.3,321.3,37.4,440.1-161.5
			c155.4-260.2-28.3-667.2-395.1-637.9c-199.6,15.9-287.7-185.8-348.6-268.1c-73.3-99-173.4-166.3-292.9-138.7
			C2353.8-892.6,2272-832.8,2224.5-736.6z"/>
		<path class="st12" d="M3112.5,55.7c118.7-43.4,210.7-25.9,297,19.5c86.3,45.3,126.6,122.8,149.6,175.6
			c36.8,84.2,41.1,247.9-75.5,294.4c-131.3,52.3-192.3-70.6-225.4-101.3c-49-45.4-108.7-61.5-198.9-42.1
			c-90.2,19.4-126.9-73.2-118.7-129.4C2952.3,192.7,2993.8,99.1,3112.5,55.7z"/>
		<path class="st9" d="M1912,52.2c109.7,113,249.6,134.1,352.8,116.3c138.4-23.7,275.4-129.7,318.1-290.3
			c37.1-139.5-31-255.3-208.6-208c-114.7,30.5-192-43.9-230.4-114.3c-82-150.5-262.4-74.6-312.7,126.5
			C1781.1-116.4,1867.4,6.2,1912,52.2z"/>
		<g>
			<path class="st9" d="M2743.3-835.5c58.6,0,106.2,47.6,106.2,106.2c0,58.6-47.6,106.2-106.2,106.2c-58.6,0-106.2-47.6-106.2-106.2
				C2637.1-787.9,2684.8-835.5,2743.3-835.5L2743.3-835.5z M2743.3-848.2c-65.7,0-118.9,53.2-118.9,118.9
				c0,65.7,53.2,118.9,118.9,118.9c65.7,0,118.9-53.2,118.9-118.9C2862.2-795,2809-848.2,2743.3-848.2L2743.3-848.2z"/>
		</g>
		<path class="st1" d="M3170,1157.1c36.7,0,66.6,29.9,66.6,66.6c0,36.7-29.9,66.6-66.6,66.6c-36.7,0-66.6-29.9-66.6-66.6
			C3103.4,1187,3133.3,1157.1,3170,1157.1L3170,1157.1z M3170,1144.4c-43.8,0-79.3,35.5-79.3,79.3c0,43.8,35.5,79.3,79.3,79.3
			c43.8,0,79.3-35.5,79.3-79.3C3249.3,1179.9,3213.8,1144.4,3170,1144.4L3170,1144.4z"/>
		<path class="st6" d="M3059.7,979.8c14.9,0,26.9,12.1,26.9,26.9c0,14.9-12.1,26.9-26.9,26.9c-14.9,0-26.9-12.1-26.9-26.9
			C3032.8,991.9,3044.9,979.8,3059.7,979.8L3059.7,979.8z M3059.7,967.1c-21.9,0-39.6,17.7-39.6,39.6c0,21.9,17.7,39.6,39.6,39.6
			c21.9,0,39.6-17.7,39.6-39.6C3099.4,984.9,3081.6,967.1,3059.7,967.1L3059.7,967.1z"/>
		<path class="st9" d="M3259.9-723.1c-8.6,94,21.7,157,71.1,210.6c49.4,53.6,113.2,67.8,155.8,74.3c68,10.4,187.3-17.8,198.5-110.8
			c12.6-104.7-88-125.3-116.5-143.2c-42.3-26.6-65.3-66.6-68.6-135.4c-3.3-68.8-77.3-77.5-116.4-60.9
			C3328.3-864.9,3268.5-817.1,3259.9-723.1z"/>
		<g>
			<g>
				<path class="st5" d="M3382.5-767.6L3257-893c-2.4-2.4-2.4-6.4,0-8.9l0,0c2.4-2.4,6.4-2.4,8.9,0l125.4,125.4
					c2.4,2.4,2.4,6.4,0,8.9l0,0C3388.9-765.1,3384.9-765.1,3382.5-767.6z"/>
			</g>
			<g>
				<path class="st5" d="M3365.7-829.1l-47.1-47.1c-2.4-2.4-2.4-6.4,0-8.9l0,0c2.4-2.4,6.4-2.4,8.9,0l47.1,47.1
					c2.4,2.4,2.4,6.4,0,8.9l0,0C3372.1-826.7,3368.1-826.7,3365.7-829.1z"/>
			</g>
			<g>
				<path class="st5" d="M3382.5-722.8L3212.3-893c-2.4-2.4-2.4-6.4,0-8.9l0,0c2.4-2.4,6.4-2.4,8.9,0l170.2,170.2
					c2.4,2.4,2.4,6.4,0,8.9l0,0C3388.9-720.4,3384.9-720.4,3382.5-722.8z"/>
			</g>
			<g>
				<path class="st5" d="M3373.1-687.4l-196.3-196.3c-2.4-2.4-2.4-6.4,0-8.9l0,0c2.4-2.4,6.4-2.4,8.9,0L3382-696.3
					c2.4,2.4,2.4,6.4,0,8.9l0,0C3379.5-685,3375.6-685,3373.1-687.4z"/>
			</g>
			<g>
				<path class="st5" d="M3357.8-658l-210.4-210.4c-2.4-2.4-2.4-6.4,0-8.9l0,0c2.4-2.4,6.4-2.4,8.9,0l210.4,210.4
					c2.4,2.4,2.4,6.4,0,8.9l0,0C3364.2-655.5,3360.3-655.5,3357.8-658z"/>
			</g>
			<g>
				<path class="st5" d="M3337.7-633.3l-214.9-214.9c-2.4-2.4-2.4-6.4,0-8.9l0,0c2.4-2.4,6.4-2.4,8.9,0l214.9,214.9
					c2.4,2.4,2.4,6.4,0,8.9l0,0C3344.1-630.9,3340.1-630.9,3337.7-633.3z"/>
			</g>
			<g>
				<path class="st5" d="M3313-613.2l-210.4-210.4c-2.4-2.4-2.4-6.4,0-8.9l0,0c2.4-2.4,6.4-2.4,8.9,0L3321.9-622
					c2.4,2.4,2.4,6.4,0,8.9l0,0C3319.4-610.7,3315.5-610.7,3313-613.2z"/>
			</g>
			<g>
				<path class="st5" d="M3283.6-597.9l-196.3-196.3c-2.4-2.4-2.4-6.4,0-8.9l0,0c2.4-2.4,6.4-2.4,8.9,0l196.3,196.3
					c2.4,2.4,2.4,6.4,0,8.9l0,0C3290-595.4,3286-595.4,3283.6-597.9z"/>
			</g>
			<g>
				<path class="st5" d="M3248.2-588.5L3078-758.7c-2.4-2.4-2.4-6.4,0-8.9l0,0c2.4-2.4,6.4-2.4,8.9,0L3257-597.4
					c2.4,2.4,2.4,6.4,0,8.9l0,0C3254.6-586.1,3250.6-586.1,3248.2-588.5z"/>
			</g>
			<g>
				<path class="st5" d="M3203.4-588.5L3078-714c-2.4-2.4-2.4-6.4,0-8.9l0,0c2.4-2.4,6.4-2.4,8.9,0l125.4,125.4
					c2.4,2.4,2.4,6.4,0,8.9l0,0C3209.8-586.1,3205.9-586.1,3203.4-588.5z"/>
			</g>
			<g>
				<path class="st5" d="M3141.9-605.3l-47.1-47.1c-2.4-2.4-2.4-6.4,0-8.9l0,0c2.4-2.4,6.4-2.4,8.9,0l47.1,47.1
					c2.4,2.4,2.4,6.4,0,8.9l0,0C3148.3-602.9,3144.3-602.9,3141.9-605.3z"/>
			</g>
		</g>
	</g>
</g>
</svg>
